# xmcd
#
# Track frame offsets: 
#        151
#        14422
#        29643
#        50114
#        71333
#        88466
#        103323
#        118912
#        136185
#        151476
#        166153
#        178054
#        197007
#        210770
#        237581
#        249008
#
# Disc length: 3466 seconds
#
# Revision: 2
# Processed by: cddbd v1.5.2PL0 Copyright (c) Steve Scherf et al.
# Submitted via: ExactAudioCopy v0.99pb3
#
DISCID=e20d8810
DTITLE=Dave MacKENZIE - Old, New, Borrowed, and Blue
DYEAR=1999
DGENRE=Blues
TTITLE0=Coal Black Mare
TTITLE1=Preachin' To The Choir
TTITLE2=New Cairo Blues
TTITLE3=Girlfriend Blues
TTITLE4=The Ballad Of Jetlag Johnson
TTITLE5=Steel Guitar Rag - I'm So Glad
TTITLE6=Loaded And Laid
TTITLE7=Me And The Devil
TTITLE8=Pretty All Day Long
TTITLE9=If I Loose My Way
TTITLE10=Turn Your Money Green - Kassie Jones
TTITLE11=No Need To Worry
TTITLE12=West Texas Boogie
TTITLE13=Ruby's Rag - Tennessee Moon
TTITLE14=I Can't Be Satisfied
TTITLE15=Xmas Blues
EXTD=YEAR: 1999
EXTT0=
EXTT1=
EXTT2=
EXTT3=
EXTT4=
EXTT5=
EXTT6=
EXTT7=
EXTT8=
EXTT9=
EXTT10=
EXTT11=
EXTT12=
EXTT13=
EXTT14=
EXTT15=
PLAYORDER=
